<?xml version="1.0" encoding="UTF-8"?> <svg xmlns="http://www.w3.org/2000/svg" xmlns:xlink="http://www.w3.org/1999/xlink" id="Layer_1" data-name="Layer 1" viewBox="0 0 672 228.91"><defs><style>.cls-1{fill:#fff;opacity:0.05;}.cls-2{fill:url(#linear-gradient);}.cls-3{fill:#2a343f;}.cls-4{fill:#fdfdfd;}.cls-5{fill:#080b0f;}.cls-6{fill:#0071bc;}</style><linearGradient id="linear-gradient" x1="265.34" y1="209.95" x2="264.42" y2="400.43" gradientUnits="userSpaceOnUse"><stop offset="0.07" stop-color="#a28135"></stop><stop offset="0.07" stop-color="#a48337"></stop><stop offset="0.16" stop-color="#c2a453"></stop><stop offset="0.23" stop-color="#d8bc68"></stop><stop offset="0.3" stop-color="#e5cb75"></stop><stop offset="0.36" stop-color="#ead079"></stop><stop offset="0.36" stop-color="#ead079"></stop><stop offset="0.4" stop-color="#f3de8a"></stop><stop offset="0.44" stop-color="#f8e694"></stop><stop offset="0.49" stop-color="#fae997"></stop><stop offset="0.52" stop-color="#f1db86"></stop><stop offset="0.57" stop-color="#e6ca72"></stop><stop offset="0.63" stop-color="#dfbd63"></stop><stop offset="0.7" stop-color="#dab65b"></stop><stop offset="0.81" stop-color="#d9b458"></stop></linearGradient></defs><title>qsc2</title><rect class="cls-1" width="672" height="199"></rect><path class="cls-2" d="M210.32,240c-1.93.28-3.7,2.43-3.86,4.71,0,.56,0,1.12,0,1.68,0,25.13,0,50.26-.05,75.4a6.41,6.41,0,0,0,6.77,6.74c11.78-.13,23.57,0,35.36,0a8.35,8.35,0,0,1,6.26,2.37C266.09,341.31,277.55,351.63,289,362c.11.1.2.22.34.37a1.72,1.72,0,0,1-1.07.14q-35,0-70-.1c-12.55,0-25.09-.19-37.64-.07a10.78,10.78,0,0,1-10.88-10.87q.13-67.62.05-135.22c0-6.48,4.37-10.81,10.84-10.81l45.32.07,102,.23a11.45,11.45,0,0,1,6.73,1.74,10.15,10.15,0,0,1,4.66,8.82v75.16q0,21.69,0,43.39a2.6,2.6,0,0,0,.87,2.09c6.52,6.3,13,12.64,19.53,18.94.64.62.65.93,0,1.56-4.09,4-8.13,8-12.2,12-6.35,6.28-12.72,12.54-19,18.84-.72.71-1.07.81-1.86,0q-15.77-15.42-31.6-30.76c-.17-.16-.37-.3-.55-.45-.84-.85-1.67-1.72-2.53-2.55q-15.17-14.76-30.35-29.48c-.69-.67-.8-1,0-1.76,2.36-2.22,4.64-4.52,6.95-6.81,4.83-4.79,9.66-9.61,14.5-14.4,3.18-3.14,6.39-6.26,9.57-9.41.28-.28.78-.44.71-1h0l.64.07,8.74,8.64V294.9q0-6.24,0-12.47,0-18.21,0-36.43c0-4-2.34-6.31-6.32-6.34q-9.22-.06-18.45-.09c-7.71,0-15.42,0-23.13,0-.12,0-.24,0-.36,0l-42-.06a3.75,3.75,0,0,0-1.87.3c-.12,0-.26.06-.21.25Z" transform="translate(-161 -160)"></path><path class="cls-3" d="M363.54,354.45c-2.38-2.32-4.67-4.52-6.94-6.74-4.43-4.33-8.84-8.67-13.3-13a2.85,2.85,0,0,1-1-2.28q0-59.26,0-118.55a10.55,10.55,0,0,0-10.76-10.84l-131.14-.3q-8,0-15.94-.09a2.33,2.33,0,0,1-1.39-.21l11.8-2.52c9.2-2,18.4-4,27.61-5.9,3.45-.71,6.85-1.67,10.35-2.07a67.05,67.05,0,0,1,8-.06c36.72.24,73.45,0,110.17.16a11.45,11.45,0,0,1,4.79.71,8.33,8.33,0,0,1,5.2,8.11q0,37.64-.16,75.28c0,6.51,0,13-.07,19.54a2.56,2.56,0,0,0,.91,2c5.13,5,10.24,10,15.38,14.94a1.45,1.45,0,0,1,.41,1.82c-1.61,4.46-3.14,8.94-4.71,13.41C369.77,336.71,366.69,345.48,363.54,354.45Z" transform="translate(-161 -160)"></path><path class="cls-3" d="M210.51,239.76a3.75,3.75,0,0,1,1.87-.3l42,.06c.12,0,.24,0,.36,0,0,7.7.11,15.4.14,23.11,0,7.38,0,14.76,0,22.15,0,3.16,2,5.25,4.78,5.27,9.86.09,19.72.18,29.57.22,1.25,0,2.36.08,3.17,1.16a.64.64,0,0,0,.83.29c.07.55-.43.71-.71,1-3.18,3.15-6.39,6.27-9.57,9.41-4.84,4.79-9.67,9.61-14.5,14.4-2.31,2.29-4.59,4.59-6.95,6.81-.77.72-.66,1.09,0,1.76q15.21,14.72,30.35,29.48c.86.83,1.69,1.7,2.53,2.55-.71.62-.95,2.08-1.74,2s-1.43-1.15-2.14-1.8l-30.31-27.74c-1.25-1.14-2.56-2.22-3.74-3.43a3.11,3.11,0,0,0-2.45-.89c-12.35-.13-24.69-.37-37-.38a6.38,6.38,0,0,1-6.59-6.65c-.07-22.61-.29-45.22-.47-67.84q0-3-.1-6.11a14,14,0,0,1,.44-4.37l0,0C210.46,240,210.5,239.89,210.51,239.76Z" transform="translate(-161 -160)"></path><path class="cls-4" d="M293.27,291.76a.64.64,0,0,1-.83-.29c-.81-1.08-1.92-1.15-3.17-1.16-9.85,0-19.71-.13-29.57-.22-2.83,0-4.76-2.11-4.78-5.27,0-7.39,0-14.77,0-22.15,0-7.71-.09-15.41-.14-23.11,7.71,0,15.42,0,23.13,0q9.22,0,18.45.09c4,0,6.32,2.37,6.32,6.34q0,18.22,0,36.43-4.83,4.53-9.37,9.34Z" transform="translate(-161 -160)"></path><path class="cls-5" d="M293.24,291.77q4.54-4.8,9.37-9.34,0,6.24,0,12.47c-1.8-1.74-3.62-3.46-5.4-5.21-.43-.43-.71-.49-1.14,0-.71.75-1.47,1.46-2.2,2.18Z" transform="translate(-161 -160)"></path><path class="cls-4" d="M293.88,291.84c.73-.72,1.49-1.43,2.2-2.18.43-.46.71-.4,1.14,0,1.78,1.75,3.6,3.47,5.4,5.21v5.58Z" transform="translate(-161 -160)"></path><path class="cls-4" d="M210.51,239.76c0,.13,0,.24-.21.25C210.25,239.82,210.39,239.8,210.51,239.76Z" transform="translate(-161 -160)"></path><path class="cls-6" d="M386.29,239.09c0-12.47,7-19.62,17.18-19.62s17.19,7.2,17.19,19.62-7,19.94-17.19,19.94S386.29,251.55,386.29,239.09Zm25.6,0c0-7.65-3.25-12.17-8.42-12.17s-8.42,4.52-8.42,12.17c0,8.13,3.26,12.9,8.42,12.9S411.89,247.22,411.89,239.09Zm-12.58,19,8.69-.87c1.43,3.58,5.32,4.91,8.92,4.91a13.57,13.57,0,0,0,4.21-.66l1.52,6.29a15.68,15.68,0,0,1-6.71,1.26A17.24,17.24,0,0,1,399.31,258Z" transform="translate(-161 -160)"></path><path class="cls-6" d="M427.57,240.65V220.17h8.56v21.36c0,7.47,2.33,10.06,6.57,10.06s6.7-2.59,6.7-10.06V220.17h8.25v20.48c0,12.81-5.16,18.38-14.95,18.38S427.57,253.46,427.57,240.65Z" transform="translate(-161 -160)"></path><path class="cls-6" d="M472.73,220.17H483l11.88,38.16H485.8L480.85,239c-1.05-3.82-2.06-8.33-3.07-12.31h-.24c-.91,4-1.92,8.49-3,12.31l-5,19.32h-8.75Zm-4,22.37h18.2v6.7h-18.2Z" transform="translate(-161 -160)"></path><path class="cls-6" d="M498.49,220.17h8.56V251.1H522v7.23H498.49Z" transform="translate(-161 -160)"></path><path class="cls-6" d="M528.56,220.17h8.56v38.16h-8.56Z" transform="translate(-161 -160)"></path><path class="cls-6" d="M553.44,227.41H543v-7.24h29.38v7.24H562v30.92h-8.56Z" transform="translate(-161 -160)"></path><path class="cls-6" d="M583.77,244.72l-11.4-24.55h9.15l3.38,8.77c1,2.86,2,5.5,3.08,8.46h.23c1.08-3,2.16-5.6,3.2-8.46l3.37-8.77h8.94l-11.4,24.55v13.61h-8.55Z" transform="translate(-161 -160)"></path><path class="cls-6" d="M615.46,253.52l4.92-5.92c2.69,2.36,6.18,4,9.29,4,3.57,0,5.32-1.42,5.32-3.69s-2.15-3.17-5.46-4.54l-4.91-2.12c-3.93-1.6-7.64-4.85-7.64-10.4,0-6.32,5.6-11.37,13.48-11.37a17.4,17.4,0,0,1,12.17,5l-4.32,5.44a12.24,12.24,0,0,0-7.85-3c-3,0-4.83,1.24-4.83,3.42,0,2.34,2.48,3.19,5.78,4.52l4.82,2c4.62,1.88,7.51,5,7.51,10.38,0,6.33-5.24,11.82-14.26,11.82A20.78,20.78,0,0,1,615.46,253.52Z" transform="translate(-161 -160)"></path><path class="cls-6" d="M650.19,220.17H673.9v7.24H658.74v7.66h12.9v7.24h-12.9v8.79h15.74v7.23H650.19Z" transform="translate(-161 -160)"></path><path class="cls-6" d="M682,220.17h13.63c8,0,14.6,2.81,14.6,11.89,0,8.76-6.58,12.54-14.6,12.54h-5.08v13.73H682Zm12.93,17.58c4.5,0,6.92-1.94,6.92-5.69s-2.42-5-6.92-5h-4.38v10.73Zm-.87,4.58,5.92-5.52,12.08,21.52h-9.58Z" transform="translate(-161 -160)"></path><path class="cls-6" d="M712,220.17h9L725.56,238c1.13,4.18,1.89,8,3,12.24h.24c1.14-4.21,1.95-8.06,3-12.24l4.47-17.78h8.74l-11.41,38.16H723.38Z" transform="translate(-161 -160)"></path><path class="cls-6" d="M748.64,220.17h8.56v38.16h-8.56Z" transform="translate(-161 -160)"></path><path class="cls-6" d="M764.33,239.47c0-12.66,8.3-20,17.86-20a15.91,15.91,0,0,1,11.38,4.95L789.06,230a9.45,9.45,0,0,0-6.68-3c-5.19,0-9.28,4.61-9.28,12.26,0,7.85,3.61,12.41,9.15,12.41a10,10,0,0,0,7.4-3.57l4.51,5.41a15.5,15.5,0,0,1-12.22,5.6C772.34,259,764.33,252.33,764.33,239.47Z" transform="translate(-161 -160)"></path><path class="cls-6" d="M799.9,220.17h23.71v7.24H808.46v7.66h12.9v7.24h-12.9v8.79H824.2v7.23H799.9Z" transform="translate(-161 -160)"></path><path class="cls-6" d="M388.23,306.82c0-17.12,11.18-27.57,26.1-27.57a23,23,0,0,1,16.18,6.55l-4.1,4.4a16.76,16.76,0,0,0-12-5c-11.11,0-18.5,8.23-18.5,21.46s7.06,21.71,18.21,21.71c5.62,0,9.88-2.2,13.63-6l4.11,4.24a23.72,23.72,0,0,1-18.05,7.66C399.21,334.3,388.23,324.07,388.23,306.82Z" transform="translate(-161 -160)"></path><path class="cls-6" d="M436.8,306.59c0-17,10.37-27.34,25.14-27.34s25.14,10.36,25.14,27.34-10.37,27.71-25.14,27.71S436.8,323.6,436.8,306.59Zm42.55,0c0-13.23-6.91-21.4-17.41-21.4s-17.41,8.17-17.41,21.4,6.91,21.77,17.41,21.77S479.35,319.82,479.35,306.59Z" transform="translate(-161 -160)"></path><path class="cls-6" d="M499.72,280.22h9L520,308.6c1.42,3.63,2.77,7.38,4.18,11.07h.36c1.42-3.69,2.65-7.44,4.07-11.07l11.14-28.38h9v53.11h-7V304.09c0-4.62.57-11,1-15.7h-.36l-4.67,12.11L526.65,328h-5L510.56,300.5l-4.66-12.11h-.36c.38,4.69.95,11.08.95,15.7v29.24h-6.77Z" transform="translate(-161 -160)"></path><path class="cls-6" d="M564.86,280.22h16.8c13.18,0,22.07,4,22.07,15.64,0,11.18-8.84,16.4-21.71,16.4h-9.67v21.07h-7.49Zm16.21,26.56c10.29,0,15.2-3.36,15.2-10.92s-5.22-10.15-15.55-10.15h-8.37v21.07Z" transform="translate(-161 -160)"></path><path class="cls-6" d="M623.2,280.22h8.44l19.9,53.11h-7.93l-10.26-29.66c-2.11-5.94-4-11.77-5.88-17.9h-.36c-1.82,6.16-3.71,12-5.82,17.9l-10.37,29.66H603.3Zm-9.44,31.54h27.08v5.39H613.76Z" transform="translate(-161 -160)"></path><path class="cls-6" d="M659.49,280.22h7.73l21.29,33.39,6.35,11h.35c-.37-5.36-1-11.35-1-16.9V280.22h7.11v53.11h-7.73l-21.29-33.42L666,289h-.35c.37,5.37,1,11,1,16.59v27.79h-7.11Z" transform="translate(-161 -160)"></path><path class="cls-6" d="M717.47,280.22H725v53.11h-7.48Z" transform="translate(-161 -160)"></path><path class="cls-6" d="M741,280.22h33.9v5.72H748.52v16.64H770.8v5.72H748.52v19.31h27.31v5.72H741Z" transform="translate(-161 -160)"></path><path class="cls-6" d="M784,326.42l4.48-4.64a24.13,24.13,0,0,0,16.23,6.58c7.72,0,12.29-3.47,12.29-8.63,0-5.42-4.26-7.15-9.81-9.34L798.73,307c-5.48-2.11-11.91-5.86-11.91-13.67,0-8.11,7.83-14.1,18.52-14.1a25.64,25.64,0,0,1,17.32,6.58l-4,4.34a19.91,19.91,0,0,0-13.35-5c-6.6,0-11,3-11,7.76,0,5.11,5.13,7,9.74,8.79l8.38,3.27c6.81,2.64,12.12,6.3,12.12,14.2,0,8.39-7.68,15.09-20,15.09A29.74,29.74,0,0,1,784,326.42Z" transform="translate(-161 -160)"></path><text x="-161" y="-160"></text></svg> 